<svg width="1418" height="1006" fill="none" xmlns="http://www.w3.org/2000/svg"><g filter="url(#filter0_dd_697_1271)" fill="#1A1C28"><path d="M899.116 668.024c-40.685 0-75.199-10.286-103.541-30.857-27.886-21.029-48.914-49.6-63.086-85.714-14.171-36.113-21.256-76.57-21.256-121.37 0-44.799 6.857-84.57 20.571-119.313 14.171-34.742 35.428-61.942 63.771-81.599C823.917 209.057 858.431 199 899.116 199c40.686 0 75.199 10.057 103.544 30.171 28.34 19.657 49.37 46.857 63.08 81.599 14.17 34.743 21.26 74.514 21.26 119.313 0 44.8-7.09 85.257-21.26 121.37-14.17 36.114-35.43 64.685-63.77 85.714-27.883 20.571-62.168 30.857-102.854 30.857zm67.2-237.255c0-42.514-5.486-73.599-16.457-93.256-10.972-20.114-27.886-30.171-50.743-30.171-22.857 0-39.771 10.057-50.742 30.171-10.971 19.657-16.457 50.742-16.457 93.256 0 85.942 22.4 128.913 67.199 128.913 44.8 0 67.2-42.971 67.2-128.913zM677.282 561.053v98.742L331 660.481v-24l162.513-177.598c19.199-21.028 32.914-39.314 41.142-54.857 8.686-15.542 13.028-30.628 13.028-45.256 0-16-4.342-28.571-13.028-37.714-8.686-9.143-20.114-13.714-34.285-13.714-13.714 0-24.914 4.8-33.6 14.4-8.686 9.142-13.028 22.399-13.028 39.771 0 8.685.914 18.742 2.742 30.171H337.857c-3.2-12.8-4.8-25.6-4.8-38.4 0-26.057 6.857-50.971 20.571-74.742 14.172-23.771 34.057-42.971 59.657-57.599C439.342 206.314 469.056 199 502.427 199c31.085 0 59.199 6.4 84.342 19.2 25.599 12.8 45.485 30.628 59.656 53.485 14.629 22.4 21.943 47.771 21.943 76.113 0 31.086-8.457 60.343-25.371 87.771-16.457 26.971-40.914 57.599-73.371 91.885l-32.228 33.599h139.884z"/></g><defs><filter id="filter0_dd_697_1271" x=".462" y=".677" width="1417.08" height="1130.1" filterUnits="userSpaceOnUse" color-interpolation-filters="sRGB"><feFlood flood-opacity="0" result="BackgroundImageFix"/><feColorMatrix in="SourceAlpha" values="0 0 0 0 0 0 0 0 0 0 0 0 0 0 0 0 0 0 127 0" result="hardAlpha"/><feOffset dy="132.215"/><feGaussianBlur stdDeviation="165.269"/><feColorMatrix values="0 0 0 0 0.01375 0 0 0 0 0.01875 0 0 0 0 0.04625 0 0 0 0.6 0"/><feBlend in2="BackgroundImageFix" result="effect1_dropShadow_697_1271"/><feColorMatrix in="SourceAlpha" values="0 0 0 0 0 0 0 0 0 0 0 0 0 0 0 0 0 0 127 0" result="hardAlpha"/><feOffset dx="5.26" dy="10.521"/><feGaussianBlur stdDeviation="31.562"/><feComposite in2="hardAlpha" operator="out"/><feColorMatrix values="0 0 0 0 0.096 0 0 0 0 0.106105 0 0 0 0 0.144 0 0 0 0.25 0"/><feBlend in2="effect1_dropShadow_697_1271" result="effect2_dropShadow_697_1271"/><feBlend in="SourceGraphic" in2="effect2_dropShadow_697_1271" result="shape"/></filter></defs></svg>