<svg width="1172" height="695" fill="none" xmlns="http://www.w3.org/2000/svg"><g filter="url(#filter0_dd_1501_1903)" fill="#1A1C28"><path d="M445.12 363.699h-32.423v41.265h-72.426v-41.265H203V344.75l82.952-217.697h74.531L292.69 303.064h47.581v-68.215h72.426v68.215h32.423v60.635zM585.214 410.017c-24.984 0-46.178-6.316-63.583-18.948-17.124-12.913-30.037-30.458-38.739-52.635-8.702-22.177-13.054-47.02-13.054-74.531 0-27.51 4.211-51.933 12.633-73.267 8.702-21.335 21.755-38.038 39.16-50.109C539.036 128.176 560.23 122 585.214 122s46.178 6.176 63.583 18.527c17.404 12.071 30.317 28.774 38.739 50.109 8.702 21.334 13.053 45.757 13.053 73.267 0 27.511-4.351 52.354-13.053 74.531-8.703 22.177-21.756 39.722-39.161 52.635-17.123 12.632-38.177 18.948-63.161 18.948zm41.265-145.693c0-26.106-3.368-45.195-10.105-57.266-6.738-12.352-17.124-18.528-31.16-18.528-14.036 0-24.423 6.176-31.16 18.528-6.737 12.071-10.106 31.16-10.106 57.266 0 52.775 13.755 79.163 41.266 79.163 27.51 0 41.265-26.388 41.265-79.163zM969 363.699h-32.423v41.265h-72.425v-41.265H726.88V344.75l82.953-217.697h74.53L816.57 303.064h47.582v-68.215h72.425v68.215H969v60.635z"/></g><defs><filter id="filter0_dd_1501_1903" x=".024" y=".214" width="1171.95" height="693.97" filterUnits="userSpaceOnUse" color-interpolation-filters="sRGB"><feFlood flood-opacity="0" result="BackgroundImageFix"/><feColorMatrix in="SourceAlpha" values="0 0 0 0 0 0 0 0 0 0 0 0 0 0 0 0 0 0 127 0" result="hardAlpha"/><feOffset dy="81.191"/><feGaussianBlur stdDeviation="101.488"/><feColorMatrix values="0 0 0 0 0.01375 0 0 0 0 0.01875 0 0 0 0 0.04625 0 0 0 0.6 0"/><feBlend in2="BackgroundImageFix" result="effect1_dropShadow_1501_1903"/><feColorMatrix in="SourceAlpha" values="0 0 0 0 0 0 0 0 0 0 0 0 0 0 0 0 0 0 127 0" result="hardAlpha"/><feOffset dx="3.23" dy="6.461"/><feGaussianBlur stdDeviation="19.382"/><feComposite in2="hardAlpha" operator="out"/><feColorMatrix values="0 0 0 0 0.096 0 0 0 0 0.106105 0 0 0 0 0.144 0 0 0 0.25 0"/><feBlend in2="effect1_dropShadow_1501_1903" result="effect2_dropShadow_1501_1903"/><feBlend in="SourceGraphic" in2="effect2_dropShadow_1501_1903" result="shape"/></filter></defs></svg>