<svg width="1413" height="772" fill="none" xmlns="http://www.w3.org/2000/svg"><g filter="url(#filter0_dd_1456_1903)"><path d="M363.488 203.175c-10.654 0-18.281 1.937-22.882 5.811-4.6 3.632-6.901 9.686-6.901 18.16v15.255h36.683v52.3h-36.683V424h-62.47V294.701h-25.424v-52.3h25.424v-21.429c0-24.213 6.659-42.494 19.976-54.843 13.559-12.591 32.325-18.887 56.296-18.887 11.864 0 21.913 1.453 30.145 4.359v52.3c-7.264-.484-11.985-.726-14.164-.726zm120.278 225.183c-18.16 0-34.867-4.237-50.121-12.712-15.013-8.474-26.877-19.976-35.594-34.503-8.717-14.528-13.075-30.509-13.075-47.943 0-17.433 4.358-33.414 13.075-47.942 8.717-14.528 20.581-26.029 35.594-34.504 15.254-8.475 31.961-12.712 50.121-12.712 18.16 0 34.746 4.237 49.758 12.712 15.255 8.475 27.24 19.976 35.957 34.504 8.959 14.528 13.438 30.509 13.438 47.942 0 17.434-4.479 33.415-13.438 47.943-8.717 14.527-20.702 26.029-35.957 34.503-15.012 8.475-31.598 12.712-49.758 12.712zm.363-57.385c10.17 0 18.523-3.511 25.061-10.533 6.538-7.264 9.806-16.344 9.806-27.24 0-10.896-3.39-19.855-10.169-26.876-6.538-7.264-14.77-10.896-24.698-10.896-10.411 0-18.886 3.511-25.424 10.532-6.537 7.022-9.806 16.102-9.806 27.24 0 11.381 3.269 20.582 9.806 27.603 6.538 6.78 15.013 10.17 25.424 10.17zm220.615 57.385c-18.16 0-34.867-4.116-50.121-12.348-15.012-8.475-26.998-19.976-35.957-34.504-8.717-14.528-13.075-30.63-13.075-48.306 0-17.675 4.358-33.777 13.075-48.305 8.959-14.528 20.945-25.908 35.957-34.141 15.254-8.475 31.961-12.712 50.121-12.712 18.644 0 34.988 4.359 49.032 13.075 14.044 8.717 24.819 20.582 32.325 35.594l-43.221 33.051c-4.843-7.748-10.291-13.681-16.344-17.797-5.811-4.358-12.833-6.537-21.065-6.537-10.896 0-19.613 3.511-26.151 10.532-6.537 7.022-9.806 16.102-9.806 27.24 0 11.138 3.269 20.218 9.806 27.24 6.538 7.022 15.255 10.533 26.151 10.533 8.232 0 15.254-2.058 21.065-6.174 6.053-4.359 11.501-10.291 16.344-17.797l43.221 32.688c-7.506 15.012-18.281 26.876-32.325 35.593-14.044 8.717-30.388 13.075-49.032 13.075zm198.21 0c-16.949 0-32.203-3.632-45.763-10.896-13.559-7.506-24.213-17.917-31.961-31.235-7.506-13.559-11.259-29.177-11.259-46.852v-96.974h62.47v102.058c0 7.749 2.421 14.165 7.264 19.25 5.085 4.843 11.501 7.264 19.249 7.264 7.506 0 13.681-2.421 18.523-7.264 5.085-5.085 7.628-11.501 7.628-19.25V242.401h62.47v96.974c0 17.675-3.874 33.293-11.623 46.852-7.506 13.318-18.038 23.729-31.598 31.235-13.317 7.264-28.45 10.896-45.4 10.896zm189.506 0c-16.22 0-31.23-3.026-45.03-9.08-13.56-6.053-24.58-14.649-33.06-25.787l29.06-37.046c15.5 15.012 32.2 22.518 50.12 22.518 10.66 0 15.98-2.663 15.98-7.99 0-1.937-.85-3.511-2.54-4.722-1.45-1.21-4.12-2.663-7.99-4.358l-20.34-8.354c-17.92-7.264-31.23-15.254-39.95-23.971-8.48-8.716-12.71-20.218-12.71-34.504 0-17.917 6.41-31.84 19.25-41.767 12.83-10.17 29.9-15.255 51.21-15.255 28.57 0 51.33 8.838 68.28 26.514l-29.42 38.136c-12.35-10.412-25.18-15.618-38.5-15.618-8.47 0-12.71 2.3-12.71 6.901 0 1.937.97 3.632 2.9 5.085 1.94 1.452 5.09 3.026 9.45 4.721l18.16 7.264c18.16 7.264 31.47 15.012 39.95 23.245 8.72 8.232 13.07 19.492 13.07 33.777 0 18.645-7.02 33.415-21.06 44.311-14.05 10.653-32.08 15.98-54.12 15.98z" fill="#1A1C28"/></g><defs><filter id="filter0_dd_1456_1903" x=".582" y=".105" width="1412.29" height="771.574" filterUnits="userSpaceOnUse" color-interpolation-filters="sRGB"><feFlood flood-opacity="0" result="BackgroundImageFix"/><feColorMatrix in="SourceAlpha" values="0 0 0 0 0 0 0 0 0 0 0 0 0 0 0 0 0 0 127 0" result="hardAlpha"/><feOffset dy="98.091"/><feGaussianBlur stdDeviation="122.614"/><feColorMatrix values="0 0 0 0 0.01375 0 0 0 0 0.01875 0 0 0 0 0.04625 0 0 0 0.6 0"/><feBlend in2="BackgroundImageFix" result="effect1_dropShadow_1456_1903"/><feColorMatrix in="SourceAlpha" values="0 0 0 0 0 0 0 0 0 0 0 0 0 0 0 0 0 0 127 0" result="hardAlpha"/><feOffset dx="3.903" dy="7.805"/><feGaussianBlur stdDeviation="23.416"/><feComposite in2="hardAlpha" operator="out"/><feColorMatrix values="0 0 0 0 0.096 0 0 0 0 0.106105 0 0 0 0 0.144 0 0 0 0.25 0"/><feBlend in2="effect1_dropShadow_1456_1903" result="effect2_dropShadow_1456_1903"/><feBlend in="SourceGraphic" in2="effect2_dropShadow_1456_1903" result="shape"/></filter></defs></svg>