<svg width="33" height="32" fill="none" xmlns="http://www.w3.org/2000/svg"><path d="M21.167 16a4.5 4.5 0 01-4.5 4.5v1a5.5 5.5 0 005.5-5.5h-1zm-4.5 4.5a4.5 4.5 0 01-4.5-4.5h-1a5.5 5.5 0 005.5 5.5v-1zm-4.5-4.5a4.5 4.5 0 014.5-4.5v-1a5.5 5.5 0 00-5.5 5.5h1zm4.5-4.5a4.5 4.5 0 014.5 4.5h1a5.5 5.5 0 00-5.5-5.5v1zm-5.5-6.5h11V4h-11v1zm11 0a5.5 5.5 0 015.5 5.5h1a6.5 6.5 0 00-6.5-6.5v1zm5.5 5.5v11h1v-11h-1zm0 11a5.5 5.5 0 01-5.5 5.5v1a6.5 6.5 0 006.5-6.5h-1zm-5.5 5.5h-11v1h11v-1zm-11 0a5.5 5.5 0 01-5.5-5.5h-1a6.5 6.5 0 006.5 6.5v-1zm-5.5-5.5v-11h-1v11h1zm0-11a5.5 5.5 0 015.5-5.5V4a6.5 6.5 0 00-6.5 6.5h1zM23.167 11a1.5 1.5 0 100-3 1.5 1.5 0 000 3z" fill="#7C83A1"/></svg>