<svg width="112" height="40" fill="none" xmlns="http://www.w3.org/2000/svg"><path d="M38.87 4.358v2.06h5.18v3.956h-5.18v2.37h5.887v4.192H33.642V.166h11.115v4.192H38.87zM55.11 16.936l-3.131-6.017h-.024v6.017h-5.228V.166H54.5c1.35 0 2.503.245 3.461.734.958.474 1.672 1.13 2.143 1.966.487.821.73 1.753.73 2.795 0 1.121-.314 2.116-.942 2.984-.612.869-1.5 1.493-2.66 1.872l3.626 6.419H55.11zm-3.155-9.522h2.073c.502 0 .879-.11 1.13-.332.251-.237.377-.6.377-1.09 0-.442-.134-.789-.4-1.042-.252-.252-.62-.379-1.107-.379h-2.073v2.843zM72.723 5.898a1.956 1.956 0 00-.871-.758c-.377-.19-.832-.284-1.366-.284-1.005 0-1.782.331-2.331.994-.55.648-.824 1.54-.824 2.677 0 1.31.306 2.29.918 2.937.612.647 1.554.971 2.826.971 1.209 0 2.182-.49 2.92-1.468h-4.168V7.248h8.5v5.258c-.721 1.248-1.718 2.322-2.99 3.222-1.272.884-2.88 1.326-4.827 1.326-1.727 0-3.234-.355-4.522-1.066a7.474 7.474 0 01-2.943-3.032c-.675-1.294-1.013-2.771-1.013-4.429 0-1.658.338-3.134 1.013-4.43a7.321 7.321 0 012.943-3.007C67.26.363 68.751 0 70.463 0c2.182 0 3.956.529 5.322 1.587 1.381 1.058 2.198 2.495 2.449 4.31h-5.51zM85.438 4.358v2.06h5.181v3.956h-5.18v2.37h5.887v4.192H80.21V.166h11.115v4.192h-5.888zM109.309.166l-5.982 11.677v5.093H98.1v-5.093L92.118.166H98.1l2.661 5.945 2.661-5.945h5.887zM49.067 23.23V40h-5.228v-6.537H38.87V40h-5.228V23.23h5.228v6.04h4.969v-6.04h5.228zM71.459 23.23V40h-5.205v-8.361L63.688 40h-4.475l-2.566-8.361V40h-5.228V23.23h6.405l3.674 10.067 3.579-10.067h6.382zM79.045 23.23V40h-5.228V23.23h5.228zM88.353 23.23c1.743 0 3.266.355 4.569 1.066 1.319.71 2.331 1.698 3.038 2.96.706 1.264 1.06 2.701 1.06 4.312 0 1.595-.354 3.032-1.06 4.31-.707 1.28-1.72 2.29-3.038 3.032-1.303.727-2.826 1.09-4.569 1.09h-6.947V23.23h6.947zm-.47 12.08c1.177 0 2.11-.324 2.802-.971.69-.647 1.036-1.571 1.036-2.771s-.346-2.124-1.036-2.771c-.691-.648-1.625-.972-2.803-.972h-1.248v7.485h1.248zM112 23.23V27.4h-4.427V40h-5.228V27.399h-4.38V23.23H112zM16.343 40c-4.627 0-8.454-1.081-11.478-3.244C1.877 34.556.255 31.35 0 27.135h12.9c.182 2.235 1.166 3.353 2.952 3.353.655 0 1.202-.146 1.64-.44.473-.33.71-.824.71-1.484 0-.916-.492-1.65-1.476-2.2-.984-.585-2.514-1.245-4.591-1.978-2.478-.88-4.537-1.741-6.177-2.584-1.603-.843-2.988-2.071-4.154-3.684S.073 14.434.109 11.905c0-2.529.638-4.673 1.913-6.432 1.312-1.796 3.08-3.153 5.303-4.069C9.584.488 12.117.03 14.922.03c4.738 0 8.491 1.1 11.26 3.298 2.806 2.2 4.282 5.297 4.428 9.292H17.546c-.036-1.1-.31-1.888-.82-2.364-.51-.477-1.13-.715-1.858-.715-.51 0-.93.183-1.258.55-.327.33-.491.806-.491 1.43 0 .88.473 1.612 1.42 2.199.985.55 2.533 1.227 4.647 2.034 2.441.916 4.446 1.796 6.013 2.639 1.603.843 2.988 2.016 4.154 3.519 1.166 1.502 1.749 3.39 1.749 5.663 0 2.382-.583 4.526-1.75 6.432-1.165 1.87-2.86 3.336-5.083 4.399C22.047 39.469 19.405 40 16.344 40z" fill="#7C83A1"/></svg>