<svg width="1375" height="621" fill="none" xmlns="http://www.w3.org/2000/svg"><g filter="url(#filter0_dd_697_1188)" fill="#1A1C28"><path d="M293.673 318.923c-21.995 0-40.179-5.109-54.553-15.327-14.201-10.391-21.908-25.544-23.12-45.46h61.307c.866 10.564 5.542 15.846 14.028 15.846 3.117 0 5.715-.693 7.793-2.078 2.251-1.559 3.377-3.897 3.377-7.014 0-4.33-2.338-7.794-7.014-10.391-4.676-2.771-11.949-5.889-21.821-9.352-11.776-4.157-21.561-8.226-29.355-12.21-7.62-3.983-14.201-9.785-19.742-17.405-5.542-7.62-8.227-17.405-8.053-29.354 0-11.95 3.03-22.081 9.092-30.394 6.234-8.486 14.634-14.894 25.198-19.223 10.737-4.33 22.773-6.495 36.109-6.495 22.513 0 40.351 5.196 53.513 15.587 13.335 10.391 20.349 25.025 21.042 43.902h-62.086c-.173-5.196-1.472-8.919-3.897-11.17-2.424-2.252-5.369-3.378-8.832-3.378-2.425 0-4.416.866-5.975 2.598-1.559 1.559-2.338 3.81-2.338 6.754 0 4.157 2.251 7.62 6.754 10.391 4.676 2.598 12.036 5.802 22.081 9.612 11.603 4.33 21.128 8.486 28.575 12.469 7.62 3.984 14.201 9.525 19.743 16.626 5.542 7.1 8.313 16.019 8.313 26.757 0 11.257-2.771 21.388-8.313 30.393-5.542 8.833-13.595 15.76-24.159 20.782-10.564 5.023-23.12 7.534-37.667 7.534zM441.745 179.164v22.6h57.15v43.383h-57.15v25.977h64.943v45.98H384.074v-183.92h122.614v45.98h-64.943zM620.902 317.104l-34.55-65.982h-.26v65.982h-57.67v-183.92h85.726c14.894 0 27.623 2.684 38.187 8.053 10.564 5.195 18.444 12.382 23.639 21.561 5.369 9.006 8.053 19.223 8.053 30.654 0 12.296-3.463 23.206-10.391 32.731-6.754 9.525-16.539 16.366-29.354 20.522l40.005 70.399h-63.385zm-34.81-104.429h22.86c5.542 0 9.699-1.212 12.47-3.637 2.771-2.598 4.156-6.581 4.156-11.95 0-4.849-1.472-8.659-4.416-11.43-2.771-2.771-6.841-4.156-12.21-4.156h-22.86v31.173zM815.194 196.049c-2.252-3.637-5.456-6.408-9.612-8.313-4.157-2.078-9.179-3.117-15.067-3.117-11.084 0-19.656 3.637-25.718 10.911-6.061 7.1-9.092 16.885-9.092 29.354 0 14.375 3.377 25.112 10.131 32.212 6.754 7.101 17.145 10.651 31.173 10.651 13.335 0 24.073-5.368 32.212-16.106h-45.98v-40.785h93.779v57.671c-7.966 13.681-18.964 25.457-32.991 35.329-14.028 9.698-31.78 14.547-53.254 14.547-19.05 0-35.676-3.896-49.877-11.69-14.028-7.966-24.852-19.05-32.472-33.251-7.447-14.201-11.17-30.393-11.17-48.578 0-18.184 3.723-34.377 11.17-48.578 7.62-14.201 18.444-25.198 32.472-32.991 14.028-7.967 30.48-11.95 49.357-11.95 24.073 0 43.642 5.802 58.709 17.405 15.24 11.604 24.246 27.363 27.017 47.279h-60.787zM955.46 179.164v22.6h57.15v43.383h-57.15v25.977h64.94v45.98H897.79v-183.92h122.61v45.98h-64.94zM1218.78 133.184l-65.98 128.069v55.851h-57.67v-55.851l-65.98-128.069h65.98l29.36 65.203 29.35-65.203h64.94z"/></g><defs><filter id="filter0_dd_697_1188" x=".243" y=".612" width="1434.3" height="620.371" filterUnits="userSpaceOnUse" color-interpolation-filters="sRGB"><feFlood flood-opacity="0" result="BackgroundImageFix"/><feColorMatrix in="SourceAlpha" values="0 0 0 0 0 0 0 0 0 0 0 0 0 0 0 0 0 0 127 0" result="hardAlpha"/><feOffset dy="86.303"/><feGaussianBlur stdDeviation="107.879"/><feColorMatrix values="0 0 0 0 0.01375 0 0 0 0 0.01875 0 0 0 0 0.04625 0 0 0 0.24 0"/><feBlend in2="BackgroundImageFix" result="effect1_dropShadow_697_1188"/><feColorMatrix in="SourceAlpha" values="0 0 0 0 0 0 0 0 0 0 0 0 0 0 0 0 0 0 127 0" result="hardAlpha"/><feOffset dx="3.434" dy="6.867"/><feGaussianBlur stdDeviation="20.602"/><feComposite in2="hardAlpha" operator="out"/><feColorMatrix values="0 0 0 0 0.096 0 0 0 0 0.106105 0 0 0 0 0.144 0 0 0 0.25 0"/><feBlend in2="effect1_dropShadow_697_1188" result="effect2_dropShadow_697_1188"/><feBlend in="SourceGraphic" in2="effect2_dropShadow_697_1188" result="shape"/></filter></defs></svg>