<svg width="2312" height="651" fill="none" xmlns="http://www.w3.org/2000/svg"><g filter="url(#filter0_dd_697_1186)" fill="#1A1C28"><path d="M291.975 455.949c-43.318 0-79.131-10.062-107.441-30.186-27.968-20.465-43.146-50.309-45.534-89.534h120.743c1.705 20.806 10.914 31.209 27.627 31.209 6.14 0 11.256-1.364 15.349-4.093 4.434-3.07 6.651-7.674 6.651-13.814 0-8.527-4.605-15.348-13.814-20.464-9.209-5.458-23.534-11.597-42.976-18.419-23.194-8.186-42.465-16.201-57.813-24.046-15.008-7.845-27.969-19.271-38.884-34.279-10.914-15.007-16.201-34.278-15.86-57.813 0-23.534 5.969-43.488 17.907-59.86 12.279-16.712 28.821-29.332 49.627-37.86C228.704 88.263 252.409 84 278.673 84c44.34 0 79.471 10.232 105.394 30.697 26.263 20.465 40.077 49.286 41.441 86.464H303.23c-.341-10.232-2.899-17.565-7.674-21.999-4.775-4.435-10.573-6.652-17.395-6.652-4.775 0-8.698 1.706-11.767 5.117-3.07 3.069-4.605 7.503-4.605 13.302 0 8.186 4.434 15.007 13.302 20.465 9.209 5.116 23.705 11.426 43.488 18.93 22.852 8.527 41.612 16.713 56.278 24.557 15.008 7.845 27.969 18.76 38.884 32.744 10.914 13.985 16.371 31.55 16.371 52.697 0 22.17-5.457 42.124-16.371 59.86-10.915 17.395-26.775 31.038-47.581 40.93-20.806 9.891-45.534 14.837-74.185 14.837zM805.131 90.14v362.227h-113.58V311.16H583.599v141.207h-113.58V90.139h113.58v130.464h107.952V90.139h113.58zM1291.62 90.14v362.227h-113.07V271.765l-55.76 180.602h-97.21l-55.767-180.602v180.602h-113.58V90.139h139.161l79.816 217.439 77.76-217.438h138.65zM1456.45 90.14v362.227h-113.58V90.139h113.58zM1658.68 90.14c37.86 0 70.94 7.674 99.25 23.022 28.65 15.349 50.65 36.667 66 63.953 15.35 27.287 23.03 58.325 23.03 93.115 0 34.449-7.68 65.488-23.03 93.115-15.35 27.628-37.35 49.457-66 65.488-28.31 15.689-61.39 23.534-99.25 23.534h-150.93V90.139h150.93zm-10.23 260.926c25.58 0 45.87-6.992 60.88-20.976 15.01-13.985 22.51-33.938 22.51-59.86 0-25.922-7.5-45.875-22.51-59.86-15.01-13.984-35.3-20.976-60.88-20.976h-27.12v161.672h27.12zM2172.43 90.14v90.045h-96.18v272.182h-113.58V180.185h-95.17V90.139h304.93z"/></g><defs><filter id="filter0_dd_697_1186" x=".173" y=".704" width="2311.09" height="649.603" filterUnits="userSpaceOnUse" color-interpolation-filters="sRGB"><feFlood flood-opacity="0" result="BackgroundImageFix"/><feColorMatrix in="SourceAlpha" values="0 0 0 0 0 0 0 0 0 0 0 0 0 0 0 0 0 0 127 0" result="hardAlpha"/><feOffset dy="55.531"/><feGaussianBlur stdDeviation="69.414"/><feColorMatrix values="0 0 0 0 0.01375 0 0 0 0 0.01875 0 0 0 0 0.04625 0 0 0 0.6 0"/><feBlend in2="BackgroundImageFix" result="effect1_dropShadow_697_1186"/><feColorMatrix in="SourceAlpha" values="0 0 0 0 0 0 0 0 0 0 0 0 0 0 0 0 0 0 127 0" result="hardAlpha"/><feOffset dx="2.209" dy="4.419"/><feGaussianBlur stdDeviation="13.256"/><feComposite in2="hardAlpha" operator="out"/><feColorMatrix values="0 0 0 0 0.096 0 0 0 0 0.106105 0 0 0 0 0.144 0 0 0 0.25 0"/><feBlend in2="effect1_dropShadow_697_1186" result="effect2_dropShadow_697_1186"/><feBlend in="SourceGraphic" in2="effect2_dropShadow_697_1186" result="shape"/></filter></defs></svg>