<svg width="1179" height="611" fill="none" xmlns="http://www.w3.org/2000/svg"><g filter="url(#filter0_dd_1439_1903)" fill="#1A1C28"><path d="M231.938 392.165V430a113.324 113.324 0 01-26.537 3.153c-18.568 0-32.844-4.466-42.828-13.4-9.984-8.933-14.977-22.246-14.977-39.937v-43.354h-19.968v-37.835h19.968v-31.53h45.193v31.53h35.208v37.835h-35.208v38.887c0 6.306 1.664 10.773 4.992 13.4 3.503 2.628 9.371 3.941 17.604 3.941l16.553-.525zM255.179 298.627h45.193V430h-45.193V298.627zm22.334-19.969c-7.708 0-14.276-2.54-19.706-7.62-5.255-5.08-7.883-11.386-7.883-18.918s2.628-13.838 7.883-18.918c5.43-5.255 11.998-7.882 19.706-7.882 7.707 0 14.276 2.627 19.706 7.882 5.43 5.08 8.145 11.386 8.145 18.918 0 7.357-2.715 13.663-8.145 18.918-5.43 5.08-11.999 7.62-19.706 7.62zM395.008 433.153c-13.137 0-25.224-2.977-36.259-8.933-10.86-6.131-19.531-14.451-26.012-24.961-6.306-10.51-9.459-22.158-9.459-34.945 0-12.788 3.153-24.436 9.459-34.946 6.481-10.51 15.152-18.743 26.012-24.698 11.035-6.131 23.122-9.196 36.259-9.196 13.488 0 25.311 3.153 35.471 9.459 10.16 6.305 17.954 14.889 23.385 25.749l-31.267 23.91c-3.504-5.605-7.445-9.897-11.824-12.875-4.204-3.153-9.284-4.729-15.239-4.729-7.883 0-14.189 2.54-18.918 7.619-4.73 5.08-7.094 11.649-7.094 19.707 0 8.057 2.364 14.626 7.094 19.706 4.729 5.079 11.035 7.619 18.918 7.619 5.955 0 11.035-1.489 15.239-4.466 4.379-3.153 8.32-7.445 11.824-12.875l31.267 23.647c-5.431 10.86-13.225 19.444-23.385 25.749-10.16 6.306-21.983 9.459-35.471 9.459zM596.002 380.078h-84.079c4.904 9.985 14.713 14.977 29.427 14.977 11.736 0 23.21-3.416 34.42-10.247l16.291 30.741c-15.59 11.736-33.019 17.604-52.287 17.604-14.189 0-26.888-2.977-38.099-8.933-11.21-6.131-19.968-14.364-26.274-24.698-6.306-10.51-9.459-22.246-9.459-35.208 0-12.788 3.065-24.436 9.196-34.946 6.306-10.51 14.801-18.743 25.486-24.698 10.685-6.131 22.509-9.196 35.471-9.196 12.612 0 23.648 2.802 33.107 8.408 9.458 5.605 16.728 13.225 21.808 22.859 5.255 9.459 7.882 19.793 7.882 31.004 0 7.882-.963 15.327-2.89 22.333zm-61.746-49.133c-5.605 0-10.597 1.751-14.976 5.255-4.204 3.328-7.182 8.145-8.934 14.451h45.718c-.175-5.956-2.365-10.685-6.569-14.189-4.203-3.678-9.283-5.517-15.239-5.517zM506.538 76.474c12.087 0 22.947 2.977 32.581 8.933 9.634 5.78 17.078 13.838 22.333 24.173 5.431 10.335 8.146 22.158 8.146 35.471 0 13.312-2.715 25.224-8.146 35.733-5.43 10.335-12.962 18.48-22.596 24.436-9.459 5.956-20.231 8.933-32.318 8.933-13.838 0-25.048-4.028-33.632-12.086v56.228h-45.192V79.627h41.251V93.29c8.233-11.211 20.757-16.816 37.573-16.816zm-8.933 96.691c7.006 0 13.05-2.453 18.129-7.357 5.08-4.905 7.62-11.736 7.62-20.494 0-8.759-2.54-15.59-7.62-20.495-4.904-4.904-10.947-7.357-18.129-7.357-7.007 0-13.05 2.365-18.13 7.094-4.904 4.73-7.357 11.561-7.357 20.495 0 8.933 2.453 15.852 7.357 20.757 5.08 4.904 11.123 7.357 18.13 7.357zM679.677 79.627v39.937h-10.773c-10.335 0-18.13 2.54-23.385 7.62-5.255 4.905-7.882 12.875-7.882 23.91V211h-45.193V79.627h41.252v13.925c4.029-5.08 8.846-9.02 14.451-11.823 5.78-2.803 11.999-4.204 18.655-4.204 4.729 0 9.021.7 12.875 2.102zM754.168 76.474c18.392 0 32.931 4.992 43.616 14.976 10.685 9.985 16.027 24.436 16.027 43.354V211H772.56v-10.772c-9.809 9.284-22.421 13.925-37.836 13.925-9.459 0-17.604-1.839-24.435-5.517-6.832-3.679-11.999-8.583-15.502-14.714-3.504-6.306-5.255-13.138-5.255-20.494 0-12.262 4.554-21.809 13.663-28.64 9.283-7.007 21.895-10.51 37.835-10.51h27.589v-2.102c0-5.08-1.664-9.108-4.993-12.086-3.152-3.153-8.145-4.73-14.976-4.73-5.956 0-11.386 1.314-16.291 3.941-4.729 2.453-10.247 6.482-16.553 12.087l-21.019-28.64c8.758-8.933 17.866-15.502 27.325-19.706 9.459-4.379 20.144-6.568 32.056-6.568zm-5.518 105.624c5.78 0 10.51-1.664 14.188-4.992 3.854-3.503 5.781-8.233 5.781-14.188v-1.051h-21.283c-3.854 0-6.831.875-8.933 2.627-2.102 1.752-3.153 4.204-3.153 7.357 0 3.153 1.138 5.693 3.415 7.62 2.453 1.751 5.781 2.627 9.985 2.627zM907.267 214.153c-13.137 0-25.223-2.977-36.259-8.933-10.86-6.131-19.531-14.451-26.012-24.961-6.306-10.51-9.459-22.158-9.459-34.945 0-12.788 3.153-24.436 9.459-34.946 6.481-10.51 15.152-18.743 26.012-24.698 11.036-6.131 23.122-9.196 36.259-9.196 13.488 0 25.312 3.153 35.471 9.459 10.16 6.305 17.955 14.889 23.385 25.749l-31.267 23.91c-3.504-5.605-7.445-9.897-11.824-12.875-4.204-3.153-9.284-4.729-15.239-4.729-7.883 0-14.189 2.54-18.918 7.619-4.729 5.08-7.094 11.649-7.094 19.707 0 8.057 2.365 14.626 7.094 19.706 4.729 5.079 11.035 7.619 18.918 7.619 5.955 0 11.035-1.489 15.239-4.466 4.379-3.153 8.32-7.445 11.824-12.875l31.267 23.647c-5.43 10.86-13.225 19.444-23.385 25.749-10.159 6.306-21.983 9.459-35.471 9.459zM983.132 106.69h68.318v37.835h-68.318V106.69z"/></g><defs><filter id="filter0_dd_1439_1903" x=".973" y=".481" width="1177.13" height="609.989" filterUnits="userSpaceOnUse" color-interpolation-filters="sRGB"><feFlood flood-opacity="0" result="BackgroundImageFix"/><feColorMatrix in="SourceAlpha" values="0 0 0 0 0 0 0 0 0 0 0 0 0 0 0 0 0 0 127 0" result="hardAlpha"/><feOffset dy="50.662"/><feGaussianBlur stdDeviation="63.327"/><feColorMatrix values="0 0 0 0 0.01375 0 0 0 0 0.01875 0 0 0 0 0.04625 0 0 0 0.6 0"/><feBlend in2="BackgroundImageFix" result="effect1_dropShadow_1439_1903"/><feColorMatrix in="SourceAlpha" values="0 0 0 0 0 0 0 0 0 0 0 0 0 0 0 0 0 0 127 0" result="hardAlpha"/><feOffset dx="2.016" dy="4.031"/><feGaussianBlur stdDeviation="12.094"/><feComposite in2="hardAlpha" operator="out"/><feColorMatrix values="0 0 0 0 0.096 0 0 0 0 0.106105 0 0 0 0 0.144 0 0 0 0.25 0"/><feBlend in2="effect1_dropShadow_1439_1903" result="effect2_dropShadow_1439_1903"/><feBlend in="SourceGraphic" in2="effect2_dropShadow_1439_1903" result="shape"/></filter></defs></svg>