<svg width="32" height="32" fill="none" xmlns="http://www.w3.org/2000/svg"><path fill-rule="evenodd" clip-rule="evenodd" d="M15.395 6.32a.3.3 0 00-.522-.153l-4.232 4.268a7.497 7.497 0 01-5.324 2.223c-.33 0-.599.27-.599.603v5.478c0 .333.268.604.6.604 1.996 0 3.911.8 5.323 2.222l4.232 4.268a.3.3 0 00.522-.153c.41-2.572.947-6.553.947-9.68s-.538-7.108-.947-9.68zm-1.973-1.614c1.348-1.36 3.688-.662 3.998 1.286.412 2.585.973 6.705.973 10.008 0 3.303-.561 7.423-.973 10.008-.31 1.948-2.65 2.645-3.998 1.286l-4.233-4.268a5.453 5.453 0 00-3.872-1.617 2.66 2.66 0 01-2.65-2.67v-5.478a2.66 2.66 0 012.65-2.67A5.453 5.453 0 009.19 8.974l4.233-4.268zM24.993 5.505a1.021 1.021 0 011.426.268C28.24 8.449 29.334 12.062 29.334 16c0 3.938-1.093 7.55-2.915 10.227-.32.47-.959.59-1.426.268a1.038 1.038 0 01-.266-1.437c1.562-2.293 2.555-5.488 2.555-9.058 0-3.57-.993-6.765-2.555-9.058a1.038 1.038 0 01.266-1.437zM21.026 8.181a1.022 1.022 0 011.369.484c.925 1.942 1.469 4.532 1.469 7.335s-.544 5.393-1.469 7.335a1.022 1.022 0 01-1.369.484 1.036 1.036 0 01-.48-1.378c.766-1.609 1.266-3.881 1.266-6.441s-.5-4.832-1.266-6.44a1.036 1.036 0 01.48-1.379z" fill="#7C83A1"/></svg>