<svg width="56" height="56" fill="none" xmlns="http://www.w3.org/2000/svg"><path d="M35.588 27.043l-14.437-9.434a.683.683 0 00-.677-.036.626.626 0 00-.349.556v18.867c0 .233.134.447.35.556a.672.672 0 00.676-.036l14.437-9.434a.622.622 0 00.287-.52.622.622 0 00-.287-.52zm-14.15 8.763V19.319l12.616 8.243-12.617 8.244z" fill="#AAAFC6"/><path d="M21.438 35.806V19.319l12.616 8.243-12.617 8.244z" fill="#AAAFC6"/><path stroke="#AAAFC6" stroke-width="2" stroke-linecap="round" d="M36.875 18.5v18.125"/></svg>