<svg width="56" height="56" fill="none" xmlns="http://www.w3.org/2000/svg"><path d="M20.412 27.043l14.437-9.434a.683.683 0 01.677-.036c.214.108.349.322.349.556v18.867a.625.625 0 01-.35.556.672.672 0 01-.676-.036l-14.437-9.434a.622.622 0 01-.287-.52c0-.208.108-.402.287-.52zm14.15 8.763V19.319l-12.616 8.243 12.616 8.244z" fill="#AAAFC6"/><path d="M34.563 35.806V19.319l-12.617 8.243 12.616 8.244z" fill="#AAAFC6"/><path transform="matrix(0 1 1 0 20.125 17.5)" stroke="#AAAFC6" stroke-width="2" stroke-linecap="round" d="M1-1h18.125"/></svg>