<svg width="33" height="32" fill="none" xmlns="http://www.w3.org/2000/svg"><path d="M24.433 12.193l-.48-.144-.005.021-.005.021.49.102zm-3.301-.15l-.46-.197-.003.008.463.19zm-2.337 3.886l.354.353.009-.01.009-.009-.372-.335zm-4.442-2.147h.5v-.032l-.5.032zm-3.49-1.562l.473-.161-.003-.008-.003-.008-.468.177zm-.408 6.126l.41-.286-.004-.005-.406.291zm9.55 1.603l.353-.353-.007-.007-.347.36zm4.781 1.074l.478-.148-.004-.01-.474.158zm-1.603-2.228l-.382.323.007.008.375-.331zm-1.304-1.372l.416-.278-.01-.015-.011-.014-.395.307zm0-.842l.419.273.081-.125v-.148h-.5zM10.833 5h11V4h-11v1zm11 0a5.5 5.5 0 015.5 5.5h1a6.5 6.5 0 00-6.5-6.5v1zm5.5 5.5v11h1v-11h-1zm0 11a5.5 5.5 0 01-5.5 5.5v1a6.5 6.5 0 006.5-6.5h-1zm-5.5 5.5h-11v1h11v-1zm-11 0a5.5 5.5 0 01-5.5-5.5h-1a6.5 6.5 0 006.5 6.5v-1zm-5.5-5.5v-11h-1v11h1zm0-11a5.5 5.5 0 015.5-5.5V4a6.5 6.5 0 00-6.5 6.5h1zm19.579 1.836c.075-.251.125-.618-.097-.931-.227-.322-.61-.405-.953-.405v1c.105 0 .157.014.174.02.008.003.005.003-.004-.004a.148.148 0 01-.033-.033c-.024-.035-.023-.06-.023-.052 0 .013-.002.05-.022.118l.958.287zM23.862 11h-1.901v1h1.901v-1zm-1.901 0c-.339 0-.627.092-.856.268-.223.17-.352.39-.433.578l.92.394a.428.428 0 01.12-.178c.032-.025.098-.062.248-.062v-1zm-.83 1.043l-.462-.189v.001l-.002.004-.008.018a9.933 9.933 0 01-.154.352 18.5 18.5 0 01-.469.953c-.405.767-.967 1.696-1.612 2.412l.743.67c.726-.806 1.333-1.82 1.753-2.615a19.494 19.494 0 00.671-1.408l.003-.006v-.002l-.462-.19zm-2.69 3.532c-.224.225-.353.339-.442.398-.068.046-.081.04-.087.04v1c.486 0 .82-.314 1.237-.731l-.707-.707zm-.529.438c.128 0 .196.067.215.094.017.024-.014 0-.014-.138h-1c0 .506.252 1.044.8 1.044v-1zm.201-.044v-3.776h-1v3.776h1zm0-3.776c0-.264-.03-.582-.22-.832-.218-.288-.541-.361-.823-.361v1c.064 0 .083.008.079.007a.134.134 0 01-.053-.042c-.013-.018-.007-.02.001.02.01.04.016.106.016.208h1zM17.07 11h-2.988v1h2.988v-1zm-2.988 0c-.566 0-.99.445-.99.935h1a.125.125 0 01-.009.05.042.042 0 01-.008.013.015.015 0 01-.004.003l.01-.001v-1zm-.99.935c0 .254.1.446.195.586.045.065.095.128.135.177.043.054.08.1.118.151.13.176.28.432.314.965l.998-.064c-.047-.744-.277-1.18-.507-1.494-.053-.07-.104-.135-.143-.184a1.948 1.948 0 01-.09-.115c-.034-.051-.02-.046-.02-.022h-1zm.761 1.847v2.799h1v-2.799h-1zm0 2.799c0 .14-.006.235-.015.298-.01.066-.019.07-.006.047a.282.282 0 01.124-.11c.048-.02.075-.015.044-.015v1a.883.883 0 00.36-.07.73.73 0 00.345-.318c.128-.23.148-.533.148-.832h-1zm.147.22c.064 0 .068.024-.005-.025a1.641 1.641 0 01-.263-.232 6.865 6.865 0 01-.771-1.032c-.568-.897-1.176-2.131-1.626-3.453l-.946.322c.474 1.395 1.116 2.7 1.727 3.666.304.48.61.89.893 1.187.14.147.287.279.435.377.14.092.333.19.556.19v-1zm-2.67-4.758c-.098-.259-.224-.538-.448-.742-.25-.227-.552-.301-.876-.301v1c.166 0 .196.034.204.042.034.03.092.111.184.355l.936-.354zM10.006 11H8.105v1h1.901v-1zm-1.901 0c-.34 0-.665.08-.893.32-.225.238-.26.53-.26.723h1c0-.042.005-.06.006-.065 0-.002-.004.014-.02.03-.017.018-.027.018-.008.012a.582.582 0 01.175-.02v-1zm-1.153 1.043c0 .196.056.5.155.864.103.38.263.862.498 1.43.47 1.135 1.239 2.619 2.443 4.3l.813-.582c-1.16-1.62-1.891-3.036-2.332-4.1a11.11 11.11 0 01-.457-1.31c-.095-.348-.12-.545-.12-.602h-1zm3.093 6.59c1.646 2.357 4 3.691 6.21 3.691v-1c-1.811 0-3.886-1.11-5.39-3.264l-.82.573zm6.21 3.691c.605 0 1.084-.06 1.41-.277.405-.27.448-.68.448-.957h-1c0 .096-.009.13-.012.139l.007-.01c.005-.008.008-.008.002-.005a.626.626 0 01-.22.068 3.764 3.764 0 01-.635.042v1zm1.858-1.234V19.38h-1v1.711h1zm0-1.711c0-.124.007-.197.015-.239.008-.04.01-.017-.021.022a.237.237 0 01-.099.071l.023-.003a.894.894 0 01.085-.003v-1c-.201 0-.553.016-.789.309a.935.935 0 00-.182.419 2.326 2.326 0 00-.032.424h1zm.003-.152c.074 0 .424.005 1.541 1.082l.694-.72c-1.137-1.096-1.738-1.362-2.235-1.362v1zm1.535 1.076c.314.314.563.585.773.819.206.228.39.436.554.601.166.167.342.322.55.432.219.115.449.17.704.17v-1a.47.47 0 01-.237-.054 1.367 1.367 0 01-.308-.253c-.142-.142-.3-.322-.52-.566-.216-.24-.478-.525-.81-.856l-.706.707zm2.581 2.021h1.902v-1h-1.902v1zm1.902 0c.334 0 .716-.08.97-.376.271-.315.269-.72.16-1.073l-.956.295a.392.392 0 01.024.146c0 .01 0-.004.014-.02.012-.014.014-.007-.019.004a.62.62 0 01-.193.024v1zm1.126-1.46c-.114-.342-.35-.72-.634-1.104-.29-.393-.657-.83-1.068-1.296l-.75.662c.404.458.75.87 1.014 1.227.27.366.427.64.49.828l.948-.317zm-1.695-2.392c-.242-.287-.54-.575-.78-.812-.268-.262-.431-.427-.49-.515l-.832.555c.132.198.396.453.621.674.251.246.511.5.717.744l.764-.646zm-1.291-1.356c-.114-.147-.075-.154-.08-.094-.002.02-.007.02.008-.01.017-.034.044-.08.096-.158l-.838-.547c-.088.136-.24.36-.263.634-.025.31.116.569.287.789l.79-.614zm.105-.535a.906.906 0 01-.027.163.88.88 0 01-.037.08l-.011.02-.002.003a64.905 64.905 0 01.09-.13l.267-.39c.223-.327.523-.775.832-1.259.308-.483.627-1.006.885-1.484.25-.46.472-.931.546-1.29l-.979-.203c-.04.199-.195.553-.446 1.018-.243.447-.547.948-.85 1.421a49.19 49.19 0 01-1.08 1.62l-.074.109a3.325 3.325 0 00-.023.034l-.013.018a.579.579 0 00-.013.023l-.018.035a.86.86 0 00-.02.048.9.9 0 00-.027.163h1z" fill="#7C83A1"/></svg>